<svg id="svg" version="1.1" xmlns="http://www.w3.org/2000/svg" xmlns:xlink="http://www.w3.org/1999/xlink" width="400" height="106.78733031674209" viewBox="0, 0, 400,106.78733031674209"><g id="svgg"><path id="path0" d="M148.191 35.095 C 147.700 35.227,147.089 35.485,146.832 35.668 C 146.575 35.850,146.258 36.000,146.127 36.000 C 145.996 36.000,145.837 36.051,145.775 36.114 C 145.613 36.275,144.470 36.661,144.145 36.664 C 143.996 36.666,143.621 36.948,143.312 37.292 C 143.003 37.635,142.476 38.056,142.142 38.225 C 141.808 38.395,141.171 38.958,140.728 39.475 C 140.285 39.993,139.865 40.442,139.795 40.472 C 139.724 40.503,139.667 40.672,139.667 40.847 C 139.667 41.023,139.364 41.469,138.994 41.839 C 138.475 42.359,138.222 42.822,137.882 43.881 C 137.641 44.634,137.268 45.489,137.054 45.782 C 135.846 47.432,135.824 59.036,137.025 60.930 C 137.286 61.341,137.502 61.769,137.504 61.881 C 137.519 62.562,138.355 64.455,138.828 64.877 C 139.119 65.137,139.464 65.605,139.594 65.917 C 139.889 66.623,141.713 68.445,142.422 68.742 C 142.713 68.863,143.109 69.185,143.303 69.458 C 143.547 69.800,143.904 70.019,144.453 70.165 C 144.891 70.281,145.962 70.723,146.833 71.146 L 148.417 71.917 152.333 71.914 L 156.250 71.912 157.762 71.123 C 158.594 70.689,159.394 70.333,159.540 70.333 C 160.051 70.333,161.256 69.679,162.000 68.998 C 162.412 68.620,162.961 68.185,163.219 68.031 C 163.666 67.764,164.667 66.353,164.667 65.991 C 164.667 65.897,164.963 65.512,165.326 65.134 C 165.856 64.582,166.036 64.223,166.248 63.294 C 166.872 60.547,166.813 60.317,165.390 59.985 C 163.773 59.607,162.818 59.294,162.590 59.066 C 162.436 58.912,161.970 58.833,161.210 58.833 L 160.063 58.833 159.858 59.708 C 159.459 61.409,159.262 61.876,158.800 62.217 C 158.543 62.407,158.332 62.642,158.330 62.740 C 158.328 62.837,158.062 63.142,157.739 63.417 C 157.416 63.692,156.874 64.187,156.534 64.517 C 155.100 65.910,152.074 66.214,148.803 65.294 C 148.444 65.193,148.005 64.889,147.743 64.561 C 147.498 64.252,147.203 64.000,147.089 64.000 C 146.975 64.000,146.688 63.794,146.451 63.542 C 146.214 63.290,145.761 62.811,145.445 62.479 C 145.129 62.147,144.790 61.622,144.693 61.312 C 144.595 61.003,144.297 60.038,144.029 59.167 C 143.762 58.296,143.440 57.246,143.314 56.833 C 143.018 55.871,142.997 51.038,143.284 50.083 C 143.618 48.971,144.512 45.957,144.707 45.287 C 144.878 44.696,146.682 42.667,147.035 42.667 C 147.114 42.667,147.425 42.419,147.728 42.117 C 148.131 41.714,148.542 41.509,149.264 41.353 C 149.806 41.236,150.577 41.058,150.978 40.959 C 151.780 40.761,155.033 41.058,155.863 41.406 C 156.985 41.876,159.658 44.808,159.671 45.583 C 159.687 46.455,161.420 46.861,162.784 46.313 C 163.040 46.210,163.400 46.069,163.583 46.000 C 163.767 45.931,164.126 45.790,164.383 45.687 C 164.639 45.584,164.965 45.500,165.106 45.500 C 165.479 45.500,166.659 44.625,166.663 44.345 C 166.665 44.214,166.597 43.877,166.511 43.595 C 166.426 43.314,166.266 42.771,166.156 42.390 C 166.046 42.008,165.703 41.408,165.393 41.056 C 164.802 40.384,164.333 39.586,164.333 39.250 C 164.333 38.978,163.781 38.500,163.466 38.500 C 163.324 38.500,162.868 38.174,162.452 37.775 C 161.718 37.072,160.424 36.333,159.926 36.333 C 159.623 36.333,158.785 35.972,158.650 35.783 C 158.016 34.899,150.709 34.418,148.191 35.095 M184.954 35.410 C 184.700 35.543,184.376 35.767,184.234 35.909 C 184.092 36.051,183.919 36.167,183.848 36.167 C 183.712 36.167,183.477 36.883,183.163 38.250 C 182.951 39.175,182.405 40.436,182.147 40.596 C 181.922 40.735,181.689 41.351,181.333 42.750 C 180.977 44.152,180.768 44.702,180.472 45.022 C 180.114 45.410,179.833 45.972,179.833 46.301 C 179.833 46.470,179.727 46.939,179.597 47.345 C 179.467 47.751,179.317 48.287,179.262 48.536 C 179.208 48.785,178.993 49.160,178.785 49.369 C 178.344 49.812,178.103 50.390,177.825 51.667 C 177.524 53.047,177.332 53.516,176.756 54.278 C 176.351 54.813,176.177 55.285,176.001 56.329 C 175.875 57.075,175.710 57.723,175.636 57.769 C 175.561 57.815,175.500 57.964,175.500 58.100 C 175.500 58.237,175.315 58.548,175.088 58.792 C 174.705 59.206,174.502 59.742,174.001 61.667 C 173.893 62.079,173.585 62.812,173.317 63.294 C 172.820 64.185,172.549 64.917,172.157 66.417 C 172.038 66.875,171.791 67.512,171.608 67.833 C 170.063 70.555,170.271 70.827,174.000 70.956 L 176.417 71.041 177.333 70.479 C 178.544 69.737,178.517 69.790,179.162 67.000 C 179.279 66.496,179.538 65.858,179.739 65.583 C 179.939 65.308,180.265 64.733,180.463 64.305 C 181.093 62.940,180.746 63.000,188.039 63.000 C 195.966 63.000,195.429 62.832,196.189 65.553 C 196.312 65.994,196.526 66.482,196.665 66.636 C 196.953 66.958,197.483 68.307,197.657 69.167 C 197.935 70.540,198.541 70.815,201.583 70.955 C 204.978 71.110,206.466 70.437,205.528 69.169 C 204.848 68.250,204.511 67.504,204.192 66.215 C 203.826 64.738,203.645 64.292,203.120 63.577 C 202.915 63.299,202.652 62.662,202.534 62.161 C 202.141 60.494,201.931 59.919,201.636 59.702 C 201.277 59.439,200.934 58.686,200.671 57.583 C 200.231 55.736,200.076 55.313,199.660 54.825 C 199.421 54.545,199.130 53.926,199.014 53.450 C 198.654 51.976,198.278 50.833,198.153 50.833 C 197.803 50.833,197.234 49.387,196.811 47.425 C 196.682 46.826,196.423 46.231,196.158 45.925 C 195.679 45.372,195.302 44.432,194.984 43.000 C 194.872 42.496,194.579 41.821,194.331 41.500 C 193.835 40.856,193.641 40.368,193.339 39.000 C 193.091 37.884,192.798 37.000,192.675 37.000 C 192.455 36.999,191.692 36.204,191.437 35.708 L 191.158 35.167 188.287 35.168 C 186.108 35.168,185.305 35.227,184.954 35.410 M212.417 35.952 C 212.233 35.996,212.012 36.100,211.925 36.183 C 211.838 36.266,211.643 36.333,211.492 36.333 C 210.632 36.333,210.667 35.616,210.667 53.451 C 210.667 66.462,210.711 69.993,210.875 70.117 C 212.036 70.997,212.080 71.000,223.672 71.000 L 234.467 71.000 235.067 70.400 L 235.667 69.800 235.667 67.902 L 235.667 66.004 235.063 65.752 C 234.554 65.540,233.280 65.500,226.974 65.500 C 219.007 65.500,218.886 65.489,218.042 64.680 L 217.667 64.320 217.667 50.680 L 217.667 37.039 217.000 36.436 L 216.332 35.833 214.541 35.853 C 213.556 35.863,212.600 35.908,212.417 35.952 M242.677 36.171 C 242.179 36.350,241.712 36.591,241.638 36.707 C 241.485 36.949,241.448 69.672,241.601 70.070 C 241.657 70.215,241.832 70.333,241.990 70.333 C 242.148 70.333,242.329 70.385,242.392 70.448 C 242.896 70.951,243.855 70.995,254.484 70.997 L 265.219 71.000 265.859 70.346 L 266.500 69.693 266.500 67.849 L 266.500 66.004 265.896 65.752 C 265.388 65.540,264.117 65.500,257.838 65.500 C 249.941 65.500,249.726 65.481,248.831 64.696 L 248.333 64.259 248.333 50.635 L 248.333 37.011 247.744 36.422 L 247.156 35.833 245.369 35.839 C 244.029 35.844,243.357 35.927,242.677 36.171 M188.111 46.026 C 188.371 46.315,188.743 46.721,188.938 46.929 C 189.864 47.917,190.004 48.236,190.573 50.652 C 190.711 51.240,190.997 51.990,191.207 52.319 C 192.436 54.240,192.559 56.015,191.540 57.114 L 191.159 57.526 188.038 57.471 C 183.968 57.400,183.173 56.845,183.956 54.624 C 184.093 54.235,184.315 53.394,184.450 52.756 C 184.697 51.586,184.979 50.888,185.371 50.474 C 185.644 50.187,186.079 48.872,186.338 47.552 C 186.723 45.598,187.289 45.111,188.111 46.026 " stroke="none" fill="#e9f2e9" fill-rule="evenodd"></path><path id="path1" d="M147.167 34.326 C 146.938 34.406,146.551 34.514,146.309 34.568 C 146.066 34.621,145.554 34.926,145.172 35.246 C 144.789 35.565,144.178 35.907,143.813 36.006 C 143.448 36.104,142.910 36.427,142.616 36.724 C 142.323 37.021,141.859 37.373,141.586 37.507 C 140.632 37.973,139.680 38.905,139.040 40.000 C 138.799 40.412,138.372 41.023,138.092 41.356 C 137.812 41.690,137.477 42.327,137.347 42.773 C 137.110 43.584,136.843 44.177,136.644 44.333 C 136.586 44.379,136.323 44.792,136.061 45.250 L 135.583 46.083 135.583 53.250 C 135.583 60.885,135.661 61.673,136.499 62.500 C 136.740 62.738,136.989 63.210,137.313 64.042 C 137.759 65.188,137.882 65.407,138.239 65.688 C 138.455 65.857,138.791 66.304,138.988 66.680 C 139.494 67.652,140.537 68.710,141.428 69.154 C 141.847 69.364,142.407 69.772,142.670 70.062 C 142.939 70.357,143.469 70.683,143.876 70.803 C 144.276 70.921,144.880 71.264,145.218 71.566 C 146.226 72.462,147.091 72.584,152.417 72.580 C 157.617 72.575,158.144 72.497,159.230 71.568 C 159.595 71.256,159.994 71.000,160.116 71.000 C 160.808 71.000,161.825 70.478,162.794 69.625 C 163.393 69.098,163.970 68.667,164.077 68.667 C 164.184 68.667,164.428 68.385,164.619 68.042 C 164.810 67.698,165.129 67.125,165.327 66.769 C 165.525 66.413,165.907 65.901,166.177 65.631 C 166.446 65.362,166.667 65.014,166.667 64.860 C 166.667 64.533,167.108 63.327,167.730 61.954 C 168.384 60.510,168.007 59.861,166.218 59.349 C 165.777 59.223,165.004 58.897,164.500 58.625 C 161.434 56.967,159.000 57.544,159.000 59.928 C 159.000 60.507,158.623 61.170,158.012 61.665 C 157.730 61.893,157.500 62.151,157.500 62.239 C 157.500 62.436,156.655 63.333,156.469 63.333 C 156.395 63.333,156.044 63.615,155.689 63.958 C 155.164 64.469,154.843 64.622,153.944 64.792 C 151.578 65.239,149.466 64.917,148.477 63.958 C 148.123 63.615,147.769 63.333,147.691 63.333 C 147.497 63.333,146.500 62.367,146.500 62.179 C 146.500 62.095,146.208 61.723,145.851 61.352 C 145.169 60.642,145.159 60.606,144.863 58.000 C 144.785 57.313,144.559 56.384,144.361 55.937 C 143.837 54.757,143.836 51.826,144.358 50.823 C 144.576 50.405,144.771 49.605,144.856 48.777 C 145.085 46.557,145.519 45.167,145.983 45.167 C 146.045 45.167,146.236 44.927,146.409 44.634 C 146.759 44.043,147.486 43.347,147.763 43.339 C 147.861 43.336,148.124 43.139,148.346 42.901 C 149.168 42.021,149.545 41.929,152.333 41.923 C 154.168 41.919,155.028 41.981,155.301 42.136 C 156.031 42.552,158.620 45.252,158.996 45.990 C 159.624 47.224,159.687 47.254,161.573 47.217 C 164.961 47.152,166.026 46.807,167.539 45.285 C 168.246 44.572,168.295 44.368,167.867 43.906 C 167.425 43.431,167.073 42.705,166.759 41.622 C 166.564 40.948,166.287 40.469,165.833 40.019 C 165.476 39.666,165.051 39.068,164.887 38.689 C 164.686 38.227,164.407 37.915,164.034 37.738 C 163.730 37.593,163.280 37.250,163.034 36.974 C 162.597 36.483,161.062 35.667,160.577 35.667 C 160.441 35.667,160.096 35.442,159.809 35.168 C 159.522 34.894,159.016 34.580,158.685 34.471 C 157.962 34.232,147.807 34.105,147.167 34.326 M184.917 34.333 C 184.733 34.412,184.395 34.482,184.165 34.488 C 183.454 34.508,183.118 35.127,182.320 37.886 C 182.192 38.328,181.974 38.815,181.835 38.970 C 181.402 39.452,180.833 40.844,180.833 41.423 C 180.833 42.041,180.263 43.411,179.795 43.915 C 179.547 44.183,179.299 44.744,179.180 45.307 C 179.070 45.826,178.909 46.480,178.823 46.762 C 178.737 47.043,178.667 47.383,178.667 47.516 C 178.667 47.649,178.456 48.018,178.198 48.337 C 177.665 48.996,177.444 49.525,177.156 50.833 C 176.926 51.876,176.545 52.833,176.359 52.833 C 176.172 52.833,175.500 54.288,175.500 54.693 C 175.500 54.887,175.428 55.316,175.341 55.647 C 175.253 55.979,175.143 56.441,175.096 56.674 C 175.049 56.907,174.756 57.432,174.444 57.841 C 174.047 58.362,173.818 58.900,173.676 59.645 C 173.450 60.840,173.045 61.820,172.656 62.113 C 172.376 62.324,172.213 62.797,171.673 64.971 C 171.440 65.911,171.166 66.562,170.821 66.990 C 169.666 68.428,169.474 71.258,170.487 71.928 C 171.311 72.473,176.614 72.507,177.587 71.974 C 178.636 71.399,179.833 69.223,179.833 67.894 C 179.833 67.756,180.043 67.330,180.299 66.947 C 180.941 65.986,181.167 65.415,181.167 64.752 C 181.167 63.673,181.203 63.667,187.745 63.668 C 194.717 63.669,195.167 63.757,195.167 65.118 C 195.167 65.391,195.570 66.867,195.875 67.708 C 195.966 67.960,196.105 68.167,196.183 68.167 C 196.359 68.167,196.864 69.174,197.162 70.121 C 197.284 70.508,197.522 70.973,197.692 71.155 C 197.861 71.337,198.000 71.552,198.000 71.632 C 198.000 71.999,199.410 72.212,202.342 72.288 L 205.433 72.368 205.967 71.919 C 206.901 71.133,206.737 68.833,205.632 67.247 C 205.361 66.858,205.088 66.158,204.981 65.580 C 204.753 64.344,204.461 63.644,203.847 62.859 C 203.586 62.524,203.322 62.025,203.262 61.750 C 203.202 61.475,203.082 60.926,202.996 60.531 C 202.809 59.672,202.311 58.506,201.984 58.163 C 201.698 57.863,201.165 56.384,201.166 55.895 C 201.167 55.394,200.702 54.325,200.268 53.833 C 199.876 53.389,199.655 52.800,199.327 51.333 C 199.097 50.306,198.842 49.741,198.385 49.250 C 198.068 48.910,197.856 48.294,197.492 46.667 C 197.316 45.876,196.849 44.943,196.491 44.667 C 196.328 44.540,195.667 42.396,195.667 41.991 C 195.667 41.660,195.218 40.690,194.978 40.500 C 194.673 40.260,194.199 39.123,194.004 38.167 C 193.734 36.841,193.593 36.533,193.010 36.000 C 192.759 35.771,192.462 35.411,192.350 35.199 C 191.851 34.263,186.524 33.643,184.917 34.333 M157.753 34.710 C 158.212 34.824,158.812 35.069,159.086 35.256 C 159.612 35.615,159.921 35.769,161.230 36.323 C 161.677 36.512,162.329 36.925,162.678 37.241 C 163.028 37.556,163.542 37.933,163.822 38.077 C 164.107 38.225,164.487 38.650,164.689 39.045 C 164.886 39.433,165.318 40.058,165.649 40.435 C 165.991 40.826,166.345 41.471,166.471 41.935 C 166.769 43.031,167.186 44.000,167.359 44.000 C 167.946 44.000,166.745 45.530,165.833 45.944 C 164.697 46.460,163.394 46.764,161.647 46.921 C 160.059 47.064,159.780 46.925,159.228 45.717 C 158.726 44.620,156.756 42.563,155.577 41.905 C 154.817 41.480,154.744 41.472,152.275 41.536 C 149.132 41.617,148.757 41.765,146.793 43.693 C 145.027 45.427,144.984 45.522,144.317 49.083 C 144.214 49.633,144.082 50.158,144.025 50.250 C 143.409 51.225,143.280 54.793,143.815 56.040 C 143.988 56.444,144.217 57.219,144.324 57.762 C 144.812 60.231,144.899 60.605,145.069 60.939 C 145.332 61.456,146.339 62.681,146.901 63.165 C 147.167 63.395,147.654 63.817,147.984 64.102 C 149.196 65.152,149.515 65.238,152.186 65.239 C 155.072 65.240,155.138 65.211,157.396 62.933 C 158.766 61.551,159.125 60.948,159.486 59.430 C 159.838 57.945,161.143 57.724,163.482 58.752 C 164.215 59.074,165.062 59.387,165.365 59.447 C 165.873 59.547,166.425 59.805,167.294 60.347 C 167.628 60.556,167.628 60.571,167.333 61.404 C 167.169 61.870,166.942 62.587,166.830 63.000 C 166.461 64.360,166.149 65.060,165.666 65.610 C 165.403 65.909,165.055 66.437,164.892 66.785 C 164.729 67.132,164.506 67.509,164.396 67.622 C 164.286 67.735,164.171 67.885,164.140 67.955 C 164.109 68.026,163.708 68.377,163.250 68.736 C 162.792 69.095,162.342 69.474,162.250 69.580 C 162.103 69.748,161.570 70.059,160.627 70.524 C 160.468 70.602,160.223 70.667,160.083 70.667 C 159.790 70.667,159.232 70.959,158.750 71.364 C 157.036 72.805,148.015 72.838,145.916 71.411 C 145.415 71.070,145.177 70.954,143.889 70.418 C 143.508 70.259,142.949 69.875,142.648 69.565 C 142.348 69.254,142.008 69.000,141.893 69.000 C 141.564 69.000,139.731 67.221,139.445 66.624 C 139.302 66.327,138.897 65.766,138.544 65.378 C 138.191 64.991,137.802 64.391,137.679 64.045 C 137.557 63.699,137.194 62.859,136.873 62.178 C 135.310 58.859,135.173 48.043,136.659 45.250 C 136.903 44.792,137.348 43.804,137.648 43.056 C 137.947 42.307,138.346 41.557,138.533 41.389 C 138.720 41.221,139.115 40.708,139.409 40.250 C 140.083 39.203,141.044 38.239,141.819 37.832 C 142.148 37.659,142.693 37.252,143.031 36.926 C 143.368 36.600,143.725 36.333,143.824 36.333 C 144.022 36.333,145.534 35.657,145.667 35.509 C 145.826 35.333,146.563 34.959,147.072 34.796 C 148.514 34.337,155.993 34.276,157.753 34.710 M191.242 34.693 C 191.476 34.800,191.667 34.937,191.667 34.997 C 191.667 35.058,192.062 35.565,192.546 36.123 C 193.280 36.971,193.461 37.313,193.644 38.194 C 193.929 39.571,194.131 40.107,194.672 40.917 C 194.917 41.283,195.158 41.771,195.208 42.000 C 195.259 42.229,195.376 42.642,195.469 42.917 C 195.562 43.192,195.731 43.717,195.843 44.083 C 195.955 44.450,196.249 45.050,196.496 45.417 C 196.742 45.783,197.036 46.458,197.149 46.917 C 197.617 48.815,198.110 50.042,198.523 50.336 C 198.659 50.433,199.020 51.501,199.337 52.750 C 199.454 53.208,199.723 53.818,199.935 54.105 C 200.395 54.728,200.719 55.568,201.013 56.896 C 201.132 57.434,201.474 58.280,201.773 58.776 C 202.072 59.272,202.404 59.957,202.513 60.297 C 202.621 60.638,202.775 61.089,202.855 61.300 C 202.935 61.510,203.000 61.832,203.000 62.015 C 203.000 62.198,203.300 62.809,203.667 63.374 C 204.033 63.938,204.333 64.518,204.333 64.663 C 204.333 65.208,205.187 67.511,205.688 68.316 C 206.282 69.272,206.317 70.575,205.771 71.409 L 205.483 71.848 202.616 71.791 C 198.883 71.716,197.711 71.284,197.405 69.867 C 197.262 69.208,197.021 68.653,196.349 67.435 C 196.191 67.150,195.889 66.302,195.677 65.552 C 195.429 64.671,195.147 64.050,194.883 63.802 L 194.474 63.417 188.179 63.364 L 181.884 63.312 181.359 63.754 C 181.059 64.006,180.833 64.356,180.833 64.567 C 180.833 64.916,180.243 66.320,180.020 66.500 C 179.868 66.623,179.512 67.613,179.214 68.746 C 178.899 69.939,178.520 70.657,178.077 70.903 C 177.897 71.002,177.713 71.121,177.667 71.167 C 177.000 71.834,171.350 72.215,170.872 71.625 C 170.086 70.655,170.141 69.008,171.006 67.667 C 171.435 67.001,171.828 66.071,171.935 65.472 C 172.080 64.657,172.671 62.980,172.982 62.500 C 173.466 61.752,173.793 60.935,174.014 59.917 C 174.138 59.345,174.468 58.568,174.785 58.103 C 175.089 57.655,175.369 57.130,175.408 56.936 C 175.829 54.799,175.974 54.333,176.426 53.668 C 177.002 52.818,177.205 52.311,177.494 51.000 C 177.715 49.993,178.088 49.068,178.333 48.917 C 178.595 48.755,178.960 47.819,179.262 46.537 C 179.419 45.870,179.612 45.284,179.690 45.235 C 179.769 45.187,179.833 45.016,179.833 44.855 C 179.833 44.694,179.965 44.417,180.125 44.240 C 180.517 43.806,180.762 43.250,181.004 42.250 C 181.323 40.929,181.558 40.289,181.929 39.728 C 182.240 39.259,182.546 38.433,183.158 36.417 C 183.639 34.827,184.395 34.538,188.117 34.516 C 189.845 34.506,190.971 34.570,191.242 34.693 M211.250 34.726 C 209.826 35.154,209.917 33.887,209.917 53.417 C 209.917 72.412,209.869 71.559,210.963 72.048 C 211.876 72.455,234.952 72.326,235.667 71.910 C 236.677 71.321,237.073 70.263,237.138 67.989 C 237.230 64.784,237.437 64.851,227.367 64.841 C 221.085 64.834,219.910 64.795,219.492 64.579 L 219.000 64.325 218.999 50.787 C 218.998 35.149,219.038 35.508,217.210 34.744 C 216.480 34.439,212.247 34.426,211.250 34.726 M242.000 34.697 C 241.381 34.873,241.216 35.066,240.881 36.000 C 240.480 37.117,240.582 70.109,240.989 71.058 C 241.529 72.318,240.790 72.244,253.531 72.301 C 268.393 72.367,267.833 72.539,267.833 67.908 C 267.833 64.785,268.379 64.960,258.234 64.841 C 251.928 64.768,250.330 64.705,250.109 64.521 C 249.857 64.312,249.833 63.139,249.831 50.771 C 249.828 36.682,249.829 36.698,249.122 35.620 C 248.442 34.581,244.291 34.043,242.000 34.697 M216.711 35.208 C 217.313 35.545,218.012 36.216,218.265 36.700 C 218.462 37.077,218.500 39.366,218.500 50.740 L 218.500 64.329 219.163 64.748 L 219.827 65.167 227.322 65.167 C 236.978 65.167,236.500 65.027,236.500 67.854 C 236.500 70.129,236.417 70.368,235.335 71.208 L 234.531 71.833 223.651 71.833 C 211.447 71.833,211.224 71.815,210.580 70.780 C 210.258 70.262,210.249 69.862,210.204 53.782 C 210.152 34.742,210.070 35.719,211.753 35.257 C 212.834 34.961,216.208 34.928,216.711 35.208 M247.541 35.208 C 247.745 35.323,248.194 35.707,248.539 36.062 L 249.167 36.708 249.167 50.449 C 249.167 61.334,249.211 64.231,249.378 64.387 C 250.220 65.170,250.182 65.166,258.192 65.174 C 265.644 65.180,265.761 65.186,266.500 65.549 L 267.250 65.917 267.297 67.776 C 267.352 69.936,267.183 70.399,266.015 71.292 L 265.307 71.833 254.362 71.832 C 241.666 71.829,241.824 71.846,241.206 70.450 C 241.047 70.090,241.000 66.228,241.000 53.429 C 241.000 34.316,240.879 35.707,242.583 35.230 C 243.537 34.963,247.078 34.948,247.541 35.208 M187.130 46.789 C 186.990 47.070,186.704 48.039,186.494 48.942 C 186.284 49.845,186.021 50.696,185.910 50.833 C 185.497 51.342,185.102 52.288,184.728 53.667 C 184.237 55.474,184.239 55.531,184.817 56.149 L 185.300 56.667 188.193 56.667 C 191.372 56.667,191.361 56.670,191.699 55.521 C 191.808 55.151,191.437 53.692,191.185 53.500 C 190.922 53.300,190.340 51.835,190.158 50.917 C 189.886 49.544,189.434 48.592,188.666 47.775 C 188.309 47.394,187.875 46.902,187.701 46.681 L 187.385 46.278 187.130 46.789 M188.671 48.667 C 189.320 49.311,189.548 49.801,189.834 51.167 C 190.142 52.642,190.351 53.209,190.845 53.917 C 192.139 55.769,191.591 56.167,187.741 56.167 L 185.356 56.167 185.019 55.693 C 184.745 55.308,184.710 55.113,184.832 54.651 C 184.914 54.339,185.067 53.738,185.172 53.315 C 185.277 52.893,185.528 52.368,185.730 52.149 C 186.158 51.682,186.398 51.097,186.679 49.833 C 186.792 49.329,186.992 48.516,187.125 48.026 L 187.366 47.135 187.725 47.609 C 187.922 47.870,188.348 48.346,188.671 48.667 " stroke="none" fill="#94c49c" fill-rule="evenodd"></path><path id="path2" d="M149.167 34.497 C 147.309 34.657,146.125 34.999,145.667 35.509 C 145.534 35.657,144.022 36.333,143.824 36.333 C 143.725 36.333,143.368 36.600,143.031 36.926 C 142.693 37.252,142.148 37.659,141.819 37.832 C 141.044 38.239,140.083 39.203,139.409 40.250 C 139.115 40.708,138.720 41.221,138.533 41.389 C 138.346 41.557,137.947 42.307,137.648 43.056 C 137.348 43.804,136.903 44.792,136.659 45.250 C 135.173 48.043,135.310 58.859,136.873 62.178 C 137.194 62.859,137.557 63.699,137.679 64.045 C 137.802 64.391,138.191 64.991,138.544 65.378 C 138.897 65.766,139.302 66.327,139.445 66.624 C 139.731 67.221,141.564 69.000,141.893 69.000 C 142.008 69.000,142.348 69.254,142.648 69.565 C 142.949 69.875,143.508 70.259,143.889 70.418 C 145.177 70.954,145.415 71.070,145.916 71.411 C 148.015 72.838,157.036 72.805,158.750 71.364 C 159.232 70.959,159.790 70.667,160.083 70.667 C 160.223 70.667,160.468 70.602,160.627 70.524 C 161.570 70.059,162.103 69.748,162.250 69.580 C 162.342 69.474,162.792 69.095,163.250 68.736 C 163.708 68.377,164.109 68.026,164.140 67.955 C 164.171 67.885,164.286 67.735,164.396 67.622 C 164.506 67.509,164.729 67.132,164.892 66.785 C 165.055 66.437,165.403 65.909,165.666 65.610 C 166.149 65.060,166.461 64.360,166.830 63.000 C 166.942 62.587,167.169 61.870,167.333 61.404 C 167.628 60.571,167.628 60.556,167.294 60.347 C 166.425 59.805,165.873 59.547,165.365 59.447 C 165.062 59.387,164.215 59.074,163.482 58.752 C 161.143 57.724,159.838 57.945,159.486 59.430 C 159.125 60.948,158.766 61.551,157.396 62.933 C 155.138 65.211,155.072 65.240,152.186 65.239 C 149.515 65.238,149.196 65.152,147.984 64.102 C 147.654 63.817,147.167 63.395,146.901 63.165 C 146.339 62.681,145.332 61.456,145.069 60.939 C 144.899 60.605,144.812 60.231,144.324 57.762 C 144.217 57.219,143.988 56.444,143.815 56.040 C 143.280 54.793,143.409 51.225,144.025 50.250 C 144.082 50.158,144.214 49.633,144.317 49.083 C 144.984 45.522,145.027 45.427,146.793 43.693 C 148.757 41.765,149.132 41.617,152.275 41.536 C 154.744 41.472,154.817 41.480,155.577 41.905 C 156.756 42.563,158.726 44.620,159.228 45.717 C 159.780 46.925,160.059 47.064,161.647 46.921 C 163.394 46.764,164.697 46.460,165.833 45.944 C 166.745 45.530,167.946 44.000,167.359 44.000 C 167.186 44.000,166.769 43.031,166.471 41.935 C 166.345 41.471,165.991 40.826,165.649 40.435 C 165.318 40.058,164.886 39.433,164.689 39.045 C 164.487 38.650,164.107 38.225,163.822 38.077 C 163.542 37.933,163.028 37.556,162.678 37.241 C 162.329 36.925,161.677 36.512,161.230 36.323 C 159.921 35.769,159.612 35.615,159.086 35.256 C 158.025 34.532,153.113 34.156,149.167 34.497 M184.610 34.838 C 183.701 35.184,183.448 35.459,183.158 36.417 C 182.546 38.433,182.240 39.259,181.929 39.728 C 181.558 40.289,181.323 40.929,181.004 42.250 C 180.762 43.250,180.517 43.806,180.125 44.240 C 179.965 44.417,179.833 44.694,179.833 44.855 C 179.833 45.016,179.769 45.187,179.690 45.235 C 179.612 45.284,179.419 45.870,179.262 46.537 C 178.960 47.819,178.595 48.755,178.333 48.917 C 178.088 49.068,177.715 49.993,177.494 51.000 C 177.205 52.311,177.002 52.818,176.426 53.668 C 175.974 54.333,175.829 54.799,175.408 56.936 C 175.369 57.130,175.089 57.655,174.785 58.103 C 174.468 58.568,174.138 59.345,174.014 59.917 C 173.793 60.935,173.466 61.752,172.982 62.500 C 172.671 62.980,172.080 64.657,171.935 65.472 C 171.828 66.071,171.435 67.001,171.006 67.667 C 170.141 69.008,170.086 70.655,170.872 71.625 C 171.350 72.215,177.000 71.834,177.667 71.167 C 177.713 71.121,177.897 71.002,178.077 70.903 C 178.520 70.657,178.899 69.939,179.214 68.746 C 179.512 67.613,179.868 66.623,180.020 66.500 C 180.243 66.320,180.833 64.916,180.833 64.567 C 180.833 64.356,181.059 64.006,181.359 63.754 L 181.884 63.312 188.179 63.364 L 194.474 63.417 194.883 63.802 C 195.147 64.050,195.429 64.671,195.677 65.552 C 195.889 66.302,196.191 67.150,196.349 67.435 C 197.021 68.653,197.262 69.208,197.405 69.867 C 197.711 71.284,198.883 71.716,202.616 71.791 L 205.483 71.848 205.771 71.409 C 206.317 70.575,206.282 69.272,205.688 68.316 C 205.187 67.511,204.333 65.208,204.333 64.663 C 204.333 64.518,204.033 63.938,203.667 63.374 C 203.300 62.809,203.000 62.198,203.000 62.015 C 203.000 61.832,202.935 61.510,202.855 61.300 C 202.775 61.089,202.621 60.638,202.513 60.297 C 202.404 59.957,202.072 59.272,201.773 58.776 C 201.474 58.280,201.132 57.434,201.013 56.896 C 200.719 55.568,200.395 54.728,199.935 54.105 C 199.723 53.818,199.454 53.208,199.337 52.750 C 199.020 51.501,198.659 50.433,198.523 50.336 C 198.110 50.042,197.617 48.815,197.149 46.917 C 197.036 46.458,196.742 45.783,196.496 45.417 C 196.249 45.050,195.955 44.450,195.843 44.083 C 195.731 43.717,195.562 43.192,195.469 42.917 C 195.376 42.642,195.259 42.229,195.208 42.000 C 195.158 41.771,194.917 41.283,194.672 40.917 C 194.131 40.107,193.929 39.571,193.644 38.194 C 193.461 37.313,193.280 36.971,192.546 36.123 C 192.062 35.565,191.667 35.058,191.667 34.997 C 191.667 34.411,186.067 34.285,184.610 34.838 M157.434 35.238 C 158.047 35.461,158.594 35.706,158.650 35.783 C 158.785 35.972,159.623 36.333,159.926 36.333 C 160.424 36.333,161.718 37.072,162.452 37.775 C 162.868 38.174,163.324 38.500,163.466 38.500 C 163.781 38.500,164.333 38.978,164.333 39.250 C 164.333 39.586,164.802 40.384,165.393 41.056 C 165.703 41.408,166.046 42.008,166.156 42.390 C 166.266 42.771,166.426 43.314,166.511 43.595 C 166.597 43.877,166.665 44.214,166.663 44.345 C 166.659 44.625,165.479 45.500,165.106 45.500 C 164.965 45.500,164.639 45.584,164.383 45.687 C 164.126 45.790,163.767 45.931,163.583 46.000 C 163.400 46.069,163.040 46.210,162.784 46.313 C 161.420 46.861,159.687 46.455,159.671 45.583 C 159.658 44.808,156.985 41.876,155.863 41.406 C 155.033 41.058,151.780 40.761,150.978 40.959 C 150.577 41.058,149.806 41.236,149.264 41.353 C 148.542 41.509,148.131 41.714,147.728 42.117 C 147.425 42.419,147.114 42.667,147.035 42.667 C 146.682 42.667,144.878 44.696,144.707 45.287 C 144.512 45.957,143.618 48.971,143.284 50.083 C 142.997 51.038,143.018 55.871,143.314 56.833 C 143.440 57.246,143.762 58.296,144.029 59.167 C 144.297 60.038,144.595 61.003,144.693 61.312 C 144.790 61.622,145.129 62.147,145.445 62.479 C 145.761 62.811,146.214 63.290,146.451 63.542 C 146.688 63.794,146.975 64.000,147.089 64.000 C 147.203 64.000,147.498 64.252,147.743 64.561 C 148.005 64.889,148.444 65.193,148.803 65.294 C 151.387 66.021,152.940 66.021,155.333 65.294 C 155.654 65.196,156.195 64.847,156.534 64.517 C 156.874 64.187,157.416 63.692,157.739 63.417 C 158.062 63.142,158.328 62.837,158.330 62.740 C 158.332 62.642,158.543 62.407,158.800 62.217 C 159.262 61.876,159.459 61.409,159.858 59.708 L 160.063 58.833 161.210 58.833 C 161.970 58.833,162.436 58.912,162.590 59.066 C 162.818 59.294,163.773 59.607,165.390 59.985 C 166.813 60.317,166.872 60.547,166.248 63.294 C 166.036 64.223,165.856 64.582,165.326 65.134 C 164.963 65.512,164.667 65.897,164.667 65.991 C 164.667 66.353,163.666 67.764,163.219 68.031 C 162.961 68.185,162.412 68.620,162.000 68.998 C 161.256 69.679,160.051 70.333,159.540 70.333 C 159.394 70.333,158.594 70.689,157.762 71.123 L 156.250 71.912 152.333 71.914 L 148.417 71.917 146.833 71.146 C 145.962 70.723,144.891 70.281,144.453 70.165 C 143.904 70.019,143.547 69.800,143.303 69.458 C 143.109 69.185,142.713 68.863,142.422 68.742 C 141.713 68.445,139.889 66.623,139.594 65.917 C 139.464 65.605,139.119 65.137,138.828 64.877 C 138.355 64.455,137.519 62.562,137.504 61.881 C 137.502 61.769,137.286 61.341,137.025 60.930 C 135.824 59.036,135.846 47.432,137.054 45.782 C 137.268 45.489,137.641 44.634,137.882 43.881 C 138.222 42.822,138.475 42.359,138.994 41.839 C 139.364 41.469,139.667 41.023,139.667 40.847 C 139.667 40.672,139.724 40.503,139.795 40.472 C 139.865 40.442,140.285 39.993,140.728 39.475 C 141.171 38.958,141.808 38.395,142.142 38.225 C 142.476 38.056,143.003 37.635,143.312 37.292 C 143.621 36.948,143.996 36.666,144.145 36.664 C 144.470 36.661,145.613 36.275,145.775 36.114 C 145.837 36.051,145.996 36.000,146.127 36.000 C 146.258 36.000,146.575 35.850,146.832 35.668 C 148.166 34.718,155.213 34.432,157.434 35.238 M211.753 35.257 C 210.070 35.719,210.152 34.742,210.204 53.782 C 210.249 69.862,210.258 70.262,210.580 70.780 C 211.224 71.815,211.447 71.833,223.651 71.833 L 234.531 71.833 235.335 71.208 C 236.417 70.368,236.500 70.129,236.500 67.854 C 236.500 65.685,236.595 65.881,235.284 65.354 C 234.963 65.225,232.485 65.167,227.322 65.167 L 219.827 65.167 219.163 64.748 L 218.500 64.329 218.500 50.740 C 218.500 39.366,218.462 37.077,218.265 36.700 C 218.012 36.216,217.313 35.545,216.711 35.208 C 216.208 34.928,212.834 34.961,211.753 35.257 M242.583 35.230 C 240.879 35.707,241.000 34.316,241.000 53.429 C 241.000 66.228,241.047 70.090,241.206 70.450 C 241.824 71.846,241.666 71.829,254.362 71.832 L 265.307 71.833 266.015 71.292 C 267.183 70.399,267.352 69.936,267.297 67.776 L 267.250 65.917 266.500 65.549 C 265.761 65.186,265.644 65.180,258.192 65.174 C 250.182 65.166,250.220 65.170,249.378 64.387 C 249.211 64.231,249.167 61.334,249.167 50.449 L 249.167 36.708 248.539 36.062 C 248.194 35.707,247.745 35.323,247.541 35.208 C 247.078 34.948,243.537 34.963,242.583 35.230 M191.437 35.708 C 191.692 36.204,192.455 36.999,192.675 37.000 C 192.798 37.000,193.091 37.884,193.339 39.000 C 193.641 40.368,193.835 40.856,194.331 41.500 C 194.579 41.821,194.872 42.496,194.984 43.000 C 195.302 44.432,195.679 45.372,196.158 45.925 C 196.423 46.231,196.682 46.826,196.811 47.425 C 197.234 49.387,197.803 50.833,198.153 50.833 C 198.278 50.833,198.654 51.976,199.014 53.450 C 199.130 53.926,199.421 54.545,199.660 54.825 C 200.076 55.313,200.231 55.736,200.671 57.583 C 200.934 58.686,201.277 59.439,201.636 59.702 C 201.931 59.919,202.141 60.494,202.534 62.161 C 202.652 62.662,202.915 63.299,203.120 63.577 C 203.645 64.292,203.826 64.738,204.192 66.215 C 204.511 67.504,204.848 68.250,205.528 69.169 C 206.466 70.437,204.978 71.110,201.583 70.955 C 198.541 70.815,197.935 70.540,197.657 69.167 C 197.483 68.307,196.953 66.958,196.665 66.636 C 196.526 66.482,196.312 65.994,196.189 65.553 C 195.429 62.832,195.966 63.000,188.039 63.000 C 180.746 63.000,181.093 62.940,180.463 64.305 C 180.265 64.733,179.939 65.308,179.739 65.583 C 179.538 65.858,179.279 66.496,179.162 67.000 C 178.517 69.790,178.544 69.737,177.333 70.479 L 176.417 71.041 174.000 70.956 C 170.271 70.827,170.063 70.555,171.608 67.833 C 171.791 67.512,172.038 66.875,172.157 66.417 C 172.549 64.917,172.820 64.185,173.317 63.294 C 173.585 62.812,173.893 62.079,174.001 61.667 C 174.502 59.742,174.705 59.206,175.088 58.792 C 175.315 58.548,175.500 58.237,175.500 58.100 C 175.500 57.964,175.561 57.815,175.636 57.769 C 175.710 57.723,175.875 57.075,176.001 56.329 C 176.177 55.285,176.351 54.813,176.756 54.278 C 177.332 53.516,177.524 53.047,177.825 51.667 C 178.103 50.390,178.344 49.812,178.785 49.369 C 178.993 49.160,179.208 48.785,179.262 48.536 C 179.317 48.287,179.467 47.751,179.597 47.345 C 179.727 46.939,179.833 46.470,179.833 46.301 C 179.833 45.972,180.114 45.410,180.472 45.022 C 180.768 44.702,180.977 44.152,181.333 42.750 C 181.689 41.351,181.922 40.735,182.147 40.596 C 182.405 40.436,182.951 39.175,183.163 38.250 C 183.477 36.883,183.712 36.167,183.848 36.167 C 183.919 36.167,184.092 36.051,184.234 35.909 C 184.891 35.252,185.345 35.169,188.287 35.168 L 191.158 35.167 191.437 35.708 M217.000 36.436 L 217.667 37.039 217.667 50.680 L 217.667 64.320 218.042 64.680 C 218.886 65.489,219.007 65.500,226.974 65.500 C 233.280 65.500,234.554 65.540,235.063 65.752 L 235.667 66.004 235.667 67.902 L 235.667 69.800 235.067 70.400 L 234.467 71.000 223.672 71.000 C 212.080 71.000,212.036 70.997,210.875 70.117 C 210.711 69.993,210.667 66.462,210.667 53.451 C 210.667 35.616,210.632 36.333,211.492 36.333 C 211.643 36.333,211.838 36.266,211.925 36.183 C 212.188 35.933,212.666 35.873,214.541 35.853 L 216.332 35.833 217.000 36.436 M247.744 36.422 L 248.333 37.011 248.333 50.635 L 248.333 64.259 248.831 64.696 C 249.726 65.481,249.941 65.500,257.838 65.500 C 264.117 65.500,265.388 65.540,265.896 65.752 L 266.500 66.004 266.500 67.849 L 266.500 69.693 265.859 70.346 L 265.219 71.000 254.484 70.997 C 243.855 70.995,242.896 70.951,242.392 70.448 C 242.329 70.385,242.148 70.333,241.990 70.333 C 241.832 70.333,241.657 70.215,241.601 70.070 C 241.448 69.672,241.485 36.949,241.638 36.707 C 241.949 36.217,243.547 35.845,245.369 35.839 L 247.156 35.833 247.744 36.422 M186.851 46.010 C 186.681 46.291,186.450 46.985,186.338 47.552 C 186.079 48.872,185.644 50.187,185.371 50.474 C 184.979 50.888,184.697 51.586,184.450 52.756 C 184.315 53.394,184.093 54.235,183.956 54.624 C 183.173 56.845,183.968 57.400,188.038 57.471 L 191.159 57.526 191.540 57.114 C 192.559 56.015,192.436 54.240,191.207 52.319 C 190.997 51.990,190.711 51.240,190.573 50.652 C 190.004 48.236,189.864 47.917,188.938 46.929 C 188.743 46.721,188.371 46.315,188.111 46.026 C 187.519 45.367,187.244 45.364,186.851 46.010 M188.666 47.775 C 189.434 48.592,189.886 49.544,190.158 50.917 C 190.340 51.835,190.922 53.300,191.185 53.500 C 191.437 53.692,191.808 55.151,191.699 55.521 C 191.361 56.670,191.372 56.667,188.193 56.667 L 185.300 56.667 184.817 56.149 C 184.239 55.531,184.237 55.474,184.728 53.667 C 185.102 52.288,185.497 51.342,185.910 50.833 C 186.021 50.696,186.284 49.845,186.494 48.942 C 186.704 48.039,186.990 47.070,187.130 46.789 L 187.385 46.278 187.701 46.681 C 187.875 46.902,188.309 47.394,188.666 47.775 " stroke="none" fill="#a4cca4" fill-rule="evenodd"></path><path id="path3" d="M0.000 53.333 L 0.000 106.667 200.000 106.667 L 400.000 106.667 400.000 53.333 L 400.000 0.000 200.000 0.000 L 0.000 0.000 0.000 53.333 M160.214 34.164 C 160.652 34.372,161.095 34.701,161.199 34.896 C 161.457 35.381,161.846 35.655,162.284 35.661 C 162.936 35.671,163.493 36.039,163.693 36.594 C 163.838 36.995,164.019 37.162,164.385 37.235 C 164.982 37.355,165.321 37.760,165.328 38.363 C 165.334 38.836,165.714 39.333,166.070 39.333 C 166.664 39.333,167.500 41.068,167.500 42.303 C 167.500 42.544,167.603 42.667,167.803 42.667 C 168.649 42.667,169.196 44.649,168.646 45.719 C 167.913 47.148,167.167 47.433,163.526 47.683 C 159.540 47.957,158.667 47.714,158.667 46.333 C 158.667 46.119,158.432 45.912,157.947 45.697 C 157.385 45.448,157.193 45.256,157.068 44.815 C 156.945 44.380,156.749 44.177,156.213 43.933 C 155.689 43.695,155.453 43.458,155.259 42.975 L 155.003 42.333 152.876 42.335 C 149.920 42.338,149.516 42.421,149.239 43.085 C 149.026 43.595,148.532 43.910,147.750 44.035 C 147.528 44.070,147.346 44.310,147.205 44.752 C 146.988 45.433,146.324 46.167,145.923 46.167 C 145.756 46.167,145.671 46.621,145.588 47.958 C 145.527 48.944,145.408 50.158,145.322 50.656 C 145.120 51.832,145.123 54.944,145.327 56.236 C 145.415 56.794,145.534 57.978,145.592 58.868 L 145.697 60.487 146.307 60.785 C 146.788 61.020,146.968 61.243,147.159 61.841 C 147.378 62.523,147.477 62.622,148.159 62.841 C 148.762 63.034,148.979 63.211,149.222 63.708 L 149.527 64.333 152.180 64.333 C 154.653 64.333,154.833 64.312,154.833 64.024 C 154.833 63.553,155.563 62.868,156.190 62.750 C 156.680 62.658,156.781 62.547,157.000 61.864 C 157.201 61.235,157.369 61.028,157.862 60.796 C 158.441 60.525,158.480 60.456,158.575 59.546 C 158.631 59.017,158.805 58.321,158.963 58.000 L 159.250 57.417 161.651 57.370 C 164.333 57.318,165.419 57.544,166.060 58.285 C 166.473 58.763,167.184 59.166,167.617 59.167 C 168.036 59.169,168.808 59.850,168.843 60.250 C 169.015 62.226,168.796 62.861,167.625 63.779 C 167.488 63.886,167.324 64.261,167.261 64.612 C 166.970 66.232,166.520 67.167,166.032 67.167 C 165.771 67.167,165.333 67.850,165.333 68.258 C 165.333 68.694,164.716 69.285,164.184 69.360 C 163.964 69.391,163.701 69.566,163.600 69.749 C 162.952 70.924,162.234 71.333,160.822 71.333 C 160.410 71.333,160.274 71.433,160.087 71.875 C 159.634 72.945,158.344 73.163,152.476 73.165 C 146.292 73.168,144.650 72.897,144.418 71.839 C 144.346 71.512,144.204 71.333,144.017 71.333 C 143.165 71.333,141.882 70.761,141.228 70.088 C 140.850 69.698,140.346 69.331,140.108 69.271 C 139.576 69.138,139.022 68.563,138.884 68.003 C 138.827 67.772,138.524 67.363,138.212 67.094 C 137.504 66.485,137.259 66.015,137.004 64.778 C 136.831 63.939,136.739 63.783,136.330 63.640 C 135.137 63.225,134.924 61.285,135.060 52.077 C 135.180 43.947,135.203 43.806,136.539 43.066 C 136.717 42.968,136.893 42.555,136.997 41.995 C 137.230 40.733,137.845 39.667,138.339 39.667 C 138.406 39.667,138.655 39.257,138.892 38.757 C 139.263 37.973,139.435 37.799,140.139 37.496 C 140.588 37.303,141.049 36.970,141.164 36.755 C 141.420 36.277,142.503 35.724,143.474 35.576 C 144.094 35.481,144.232 35.385,144.432 34.905 C 144.907 33.769,145.607 33.682,153.750 33.743 C 159.248 33.785,159.440 33.797,160.214 34.164 M192.333 33.994 C 192.719 34.205,193.198 34.666,193.845 35.451 C 194.130 35.796,194.500 37.390,194.500 38.274 C 194.500 38.711,194.598 38.875,194.975 39.071 C 195.700 39.445,195.941 39.956,196.157 41.579 C 196.366 43.155,196.420 43.333,196.688 43.333 C 197.260 43.333,197.802 44.594,198.004 46.392 C 198.116 47.386,198.234 47.795,198.443 47.917 C 199.356 48.450,199.833 49.539,199.833 51.093 C 199.833 51.763,199.912 51.945,200.396 52.394 C 201.210 53.151,201.496 53.833,201.681 55.458 C 201.771 56.251,201.861 56.904,201.881 56.908 C 202.660 57.088,203.190 57.976,203.343 59.359 C 203.497 60.756,203.644 61.333,203.846 61.333 C 204.467 61.333,205.035 62.634,205.356 64.792 C 205.499 65.757,205.629 66.167,205.792 66.167 C 206.941 66.167,207.763 71.480,206.768 72.474 L 206.325 72.917 202.204 72.917 C 197.074 72.917,196.667 72.709,196.667 70.093 C 196.667 69.598,196.577 69.475,195.964 69.137 C 195.150 68.688,194.867 68.014,194.846 66.476 C 194.831 65.366,194.109 64.278,193.271 64.101 C 193.007 64.045,190.333 64.000,187.327 64.000 L 181.863 64.000 181.772 64.625 C 181.722 64.969,181.631 65.662,181.571 66.167 C 181.449 67.182,181.219 67.709,180.624 68.335 C 180.146 68.839,179.833 69.677,179.833 70.458 C 179.833 71.242,179.398 72.098,178.771 72.545 C 177.921 73.152,170.371 73.119,169.500 72.505 C 168.330 71.681,168.237 71.398,168.950 70.837 C 169.368 70.508,169.408 70.365,169.505 68.866 C 169.624 67.036,169.908 66.226,170.672 65.544 C 171.149 65.118,171.216 64.938,171.345 63.744 C 171.573 61.641,171.717 61.316,172.512 61.116 C 172.916 61.015,172.948 60.922,173.137 59.312 C 173.328 57.678,174.053 56.167,174.645 56.167 C 174.712 56.167,174.862 55.406,174.978 54.477 C 175.205 52.663,175.444 52.124,176.191 51.737 C 176.568 51.543,176.667 51.377,176.667 50.943 C 176.667 49.292,177.172 47.665,177.866 47.081 C 178.440 46.598,178.667 45.925,178.667 44.698 C 178.667 43.491,179.138 42.686,179.853 42.672 C 180.127 42.667,180.217 42.290,180.435 40.250 C 180.583 38.869,181.200 37.667,181.761 37.667 C 182.042 37.667,182.167 37.272,182.167 36.381 C 182.167 35.342,182.489 34.353,182.904 34.118 C 183.738 33.647,191.512 33.545,192.333 33.994 M218.183 34.030 C 218.495 34.139,218.832 34.309,218.932 34.409 C 219.591 35.065,219.581 34.858,219.633 49.865 L 219.682 64.314 227.966 64.382 C 237.163 64.459,236.978 64.441,237.478 65.330 C 238.230 66.668,237.828 71.704,236.910 72.436 C 236.227 72.980,234.697 73.035,221.826 72.972 C 209.091 72.909,209.873 72.996,209.523 71.604 C 209.253 70.534,209.255 36.294,209.524 35.223 C 209.852 33.920,210.138 33.835,214.183 33.834 C 216.397 33.834,217.818 33.903,218.183 34.030 M248.846 34.001 C 250.511 34.463,250.500 34.354,250.500 50.722 L 250.500 64.333 258.111 64.333 C 269.126 64.333,268.501 64.104,268.499 68.147 C 268.498 71.638,268.238 72.451,267.011 72.796 C 266.776 72.862,260.866 72.917,253.879 72.917 L 241.174 72.917 240.767 72.500 C 240.057 71.774,240.001 70.374,240.000 53.304 C 240.000 35.352,240.046 34.520,241.061 34.028 C 241.523 33.804,248.056 33.781,248.846 34.001 M187.264 49.238 C 187.213 49.428,187.170 49.926,187.169 50.345 C 187.165 51.658,186.727 52.809,186.088 53.186 C 185.612 53.467,185.512 53.637,185.417 54.334 C 185.257 55.495,185.270 55.502,187.468 55.485 C 189.832 55.468,191.268 55.301,190.713 55.109 C 190.029 54.872,189.710 54.174,189.506 52.466 L 189.314 50.857 188.335 49.875 C 187.464 49.001,187.346 48.931,187.264 49.238 " stroke="none" fill="#34a43c" fill-rule="evenodd"></path><path id="path4" d="M146.750 33.809 C 145.188 33.937,144.750 34.143,144.432 34.905 C 144.232 35.385,144.094 35.481,143.474 35.576 C 142.503 35.724,141.420 36.277,141.164 36.755 C 141.049 36.970,140.588 37.303,140.139 37.496 C 139.435 37.799,139.263 37.973,138.892 38.757 C 138.655 39.257,138.406 39.667,138.339 39.667 C 137.845 39.667,137.230 40.733,136.997 41.995 C 136.893 42.555,136.717 42.968,136.539 43.066 C 135.203 43.806,135.180 43.947,135.060 52.077 C 134.924 61.285,135.137 63.225,136.330 63.640 C 136.739 63.783,136.831 63.939,137.004 64.778 C 137.259 66.015,137.504 66.485,138.212 67.094 C 138.524 67.363,138.827 67.772,138.884 68.003 C 139.022 68.563,139.576 69.138,140.108 69.271 C 140.346 69.331,140.850 69.698,141.228 70.088 C 141.882 70.761,143.165 71.333,144.017 71.333 C 144.204 71.333,144.346 71.512,144.418 71.839 C 144.650 72.897,146.292 73.168,152.476 73.165 C 158.344 73.163,159.634 72.945,160.087 71.875 C 160.274 71.433,160.410 71.333,160.822 71.333 C 162.234 71.333,162.952 70.924,163.600 69.749 C 163.701 69.566,163.964 69.391,164.184 69.360 C 164.716 69.285,165.333 68.694,165.333 68.258 C 165.333 67.850,165.771 67.167,166.032 67.167 C 166.520 67.167,166.970 66.232,167.261 64.612 C 167.324 64.261,167.488 63.886,167.625 63.779 C 168.796 62.861,169.015 62.226,168.843 60.250 C 168.808 59.850,168.036 59.169,167.617 59.167 C 167.184 59.166,166.473 58.763,166.060 58.285 C 165.419 57.544,164.333 57.318,161.651 57.370 L 159.250 57.417 158.963 58.000 C 158.805 58.321,158.631 59.017,158.575 59.546 C 158.480 60.456,158.441 60.525,157.862 60.796 C 157.369 61.028,157.201 61.235,157.000 61.864 C 156.781 62.547,156.680 62.658,156.190 62.750 C 155.563 62.868,154.833 63.553,154.833 64.024 C 154.833 64.312,154.653 64.333,152.180 64.333 L 149.527 64.333 149.222 63.708 C 148.979 63.211,148.762 63.034,148.159 62.841 C 147.477 62.622,147.378 62.523,147.159 61.841 C 146.968 61.243,146.788 61.020,146.307 60.785 L 145.697 60.487 145.592 58.868 C 145.534 57.978,145.415 56.794,145.327 56.236 C 145.123 54.944,145.120 51.832,145.322 50.656 C 145.408 50.158,145.527 48.944,145.588 47.958 C 145.671 46.621,145.756 46.167,145.923 46.167 C 146.324 46.167,146.988 45.433,147.205 44.752 C 147.346 44.310,147.528 44.070,147.750 44.035 C 148.532 43.910,149.026 43.595,149.239 43.085 C 149.516 42.421,149.920 42.338,152.876 42.335 L 155.003 42.333 155.259 42.975 C 155.453 43.458,155.689 43.695,156.213 43.933 C 156.749 44.177,156.945 44.380,157.068 44.815 C 157.193 45.256,157.385 45.448,157.947 45.697 C 158.432 45.912,158.667 46.119,158.667 46.333 C 158.667 47.714,159.540 47.957,163.526 47.683 C 167.167 47.433,167.913 47.148,168.646 45.719 C 169.196 44.649,168.649 42.667,167.803 42.667 C 167.603 42.667,167.500 42.544,167.500 42.303 C 167.500 41.068,166.664 39.333,166.070 39.333 C 165.714 39.333,165.334 38.836,165.328 38.363 C 165.321 37.760,164.982 37.355,164.385 37.235 C 164.019 37.162,163.838 36.995,163.693 36.594 C 163.493 36.039,162.936 35.671,162.284 35.661 C 161.846 35.655,161.457 35.381,161.199 34.896 C 160.645 33.856,153.117 33.290,146.750 33.809 M184.333 33.812 C 182.605 33.989,182.167 34.509,182.167 36.381 C 182.167 37.272,182.042 37.667,181.761 37.667 C 181.200 37.667,180.583 38.869,180.435 40.250 C 180.217 42.290,180.127 42.667,179.853 42.672 C 179.138 42.686,178.667 43.491,178.667 44.698 C 178.667 45.925,178.440 46.598,177.866 47.081 C 177.172 47.665,176.667 49.292,176.667 50.943 C 176.667 51.377,176.568 51.543,176.191 51.737 C 175.444 52.124,175.205 52.663,174.978 54.477 C 174.862 55.406,174.712 56.167,174.645 56.167 C 174.053 56.167,173.328 57.678,173.137 59.312 C 172.948 60.922,172.916 61.015,172.512 61.116 C 171.717 61.316,171.573 61.641,171.345 63.744 C 171.216 64.938,171.149 65.118,170.672 65.544 C 169.908 66.226,169.624 67.036,169.505 68.866 C 169.408 70.365,169.368 70.508,168.950 70.837 C 168.237 71.398,168.330 71.681,169.500 72.505 C 170.371 73.119,177.921 73.152,178.771 72.545 C 179.398 72.098,179.833 71.242,179.833 70.458 C 179.833 69.677,180.146 68.839,180.624 68.335 C 181.219 67.709,181.449 67.182,181.571 66.167 C 181.631 65.662,181.722 64.969,181.772 64.625 L 181.863 64.000 187.327 64.000 C 190.333 64.000,193.007 64.045,193.271 64.101 C 194.109 64.278,194.831 65.366,194.846 66.476 C 194.867 68.014,195.150 68.688,195.964 69.137 C 196.577 69.475,196.667 69.598,196.667 70.093 C 196.667 72.709,197.074 72.917,202.204 72.917 L 206.325 72.917 206.768 72.474 C 207.763 71.480,206.941 66.167,205.792 66.167 C 205.629 66.167,205.499 65.757,205.356 64.792 C 205.035 62.634,204.467 61.333,203.846 61.333 C 203.644 61.333,203.497 60.756,203.343 59.359 C 203.190 57.976,202.660 57.088,201.881 56.908 C 201.861 56.904,201.771 56.251,201.681 55.458 C 201.496 53.833,201.210 53.151,200.396 52.394 C 199.912 51.945,199.833 51.763,199.833 51.093 C 199.833 49.539,199.356 48.450,198.443 47.917 C 198.234 47.795,198.116 47.386,198.004 46.392 C 197.802 44.594,197.260 43.333,196.688 43.333 C 196.420 43.333,196.366 43.155,196.157 41.579 C 195.941 39.956,195.700 39.445,194.975 39.071 C 194.598 38.875,194.500 38.711,194.500 38.274 C 194.500 37.390,194.130 35.796,193.845 35.451 C 193.198 34.666,192.719 34.205,192.333 33.994 C 191.868 33.739,186.279 33.612,184.333 33.812 M210.232 34.150 C 209.851 34.383,209.665 34.665,209.524 35.223 C 209.255 36.294,209.253 70.534,209.523 71.604 C 209.873 72.996,209.091 72.909,221.826 72.972 C 234.697 73.035,236.227 72.980,236.910 72.436 C 237.828 71.704,238.230 66.668,237.478 65.330 C 236.978 64.441,237.163 64.459,227.966 64.382 L 219.682 64.314 219.633 49.865 C 219.581 34.858,219.591 35.065,218.932 34.409 C 218.252 33.732,211.260 33.524,210.232 34.150 M241.061 34.028 C 240.046 34.520,240.000 35.352,240.000 53.304 C 240.001 70.374,240.057 71.774,240.767 72.500 L 241.174 72.917 253.879 72.917 C 260.866 72.917,266.776 72.862,267.011 72.796 C 268.238 72.451,268.498 71.638,268.499 68.147 C 268.501 64.104,269.126 64.333,258.111 64.333 L 250.500 64.333 250.500 50.722 C 250.500 34.354,250.511 34.463,248.846 34.001 C 248.056 33.781,241.523 33.804,241.061 34.028 M158.685 34.471 C 159.016 34.580,159.522 34.894,159.809 35.168 C 160.096 35.442,160.441 35.667,160.577 35.667 C 161.062 35.667,162.597 36.483,163.034 36.974 C 163.280 37.250,163.730 37.593,164.034 37.738 C 164.407 37.915,164.686 38.227,164.887 38.689 C 165.051 39.068,165.476 39.666,165.833 40.019 C 166.287 40.469,166.564 40.948,166.759 41.622 C 167.073 42.705,167.425 43.431,167.867 43.906 C 168.295 44.368,168.246 44.572,167.539 45.285 C 166.026 46.807,164.961 47.152,161.573 47.217 C 159.687 47.254,159.624 47.224,158.996 45.990 C 158.620 45.252,156.031 42.552,155.301 42.136 C 155.028 41.981,154.168 41.919,152.333 41.923 C 149.545 41.929,149.168 42.021,148.346 42.901 C 148.124 43.139,147.861 43.336,147.763 43.339 C 147.486 43.347,146.759 44.043,146.409 44.634 C 146.236 44.927,146.045 45.167,145.983 45.167 C 145.519 45.167,145.085 46.557,144.856 48.777 C 144.771 49.605,144.576 50.405,144.358 50.823 C 143.836 51.826,143.837 54.757,144.361 55.937 C 144.559 56.384,144.785 57.313,144.863 58.000 C 145.159 60.606,145.169 60.642,145.851 61.352 C 146.208 61.723,146.500 62.095,146.500 62.179 C 146.500 62.367,147.497 63.333,147.691 63.333 C 147.769 63.333,148.123 63.615,148.477 63.958 C 149.003 64.469,149.324 64.622,150.223 64.792 C 152.589 65.239,154.701 64.917,155.689 63.958 C 156.044 63.615,156.395 63.333,156.469 63.333 C 156.655 63.333,157.500 62.436,157.500 62.239 C 157.500 62.151,157.730 61.893,158.012 61.665 C 158.623 61.170,159.000 60.507,159.000 59.928 C 159.000 57.544,161.434 56.967,164.500 58.625 C 165.004 58.897,165.777 59.223,166.218 59.349 C 168.007 59.861,168.384 60.510,167.730 61.954 C 167.108 63.327,166.667 64.533,166.667 64.860 C 166.667 65.014,166.446 65.362,166.177 65.631 C 165.907 65.901,165.525 66.413,165.327 66.769 C 165.129 67.125,164.810 67.698,164.619 68.042 C 164.428 68.385,164.184 68.667,164.077 68.667 C 163.970 68.667,163.393 69.098,162.794 69.625 C 161.825 70.478,160.808 71.000,160.116 71.000 C 159.994 71.000,159.595 71.256,159.230 71.568 C 158.144 72.497,157.617 72.575,152.417 72.580 C 147.091 72.584,146.226 72.462,145.218 71.566 C 144.880 71.264,144.276 70.921,143.876 70.803 C 143.469 70.683,142.939 70.357,142.670 70.062 C 142.407 69.772,141.847 69.364,141.428 69.154 C 140.537 68.710,139.494 67.652,138.988 66.680 C 138.791 66.304,138.455 65.857,138.239 65.688 C 137.882 65.407,137.759 65.188,137.313 64.042 C 136.989 63.210,136.740 62.738,136.499 62.500 C 135.661 61.673,135.583 60.885,135.583 53.250 L 135.583 46.083 136.061 45.250 C 136.323 44.792,136.586 44.379,136.644 44.333 C 136.843 44.177,137.110 43.584,137.347 42.773 C 137.477 42.327,137.812 41.690,138.092 41.356 C 138.372 41.023,138.799 40.412,139.040 40.000 C 139.680 38.905,140.632 37.973,141.586 37.507 C 141.859 37.373,142.323 37.021,142.616 36.724 C 142.910 36.427,143.448 36.104,143.813 36.006 C 144.178 35.907,144.789 35.565,145.172 35.246 C 145.554 34.926,146.066 34.621,146.309 34.568 C 146.551 34.514,146.938 34.406,147.167 34.326 C 147.807 34.105,157.962 34.232,158.685 34.471 M191.614 34.492 C 191.906 34.670,192.237 34.988,192.350 35.199 C 192.462 35.411,192.759 35.771,193.010 36.000 C 193.593 36.533,193.734 36.841,194.004 38.167 C 194.199 39.123,194.673 40.260,194.978 40.500 C 195.218 40.690,195.667 41.660,195.667 41.991 C 195.667 42.396,196.328 44.540,196.491 44.667 C 196.849 44.943,197.316 45.876,197.492 46.667 C 197.856 48.294,198.068 48.910,198.385 49.250 C 198.842 49.741,199.097 50.306,199.327 51.333 C 199.655 52.800,199.876 53.389,200.268 53.833 C 200.702 54.325,201.167 55.394,201.166 55.895 C 201.165 56.384,201.698 57.863,201.984 58.163 C 202.311 58.506,202.809 59.672,202.996 60.531 C 203.082 60.926,203.202 61.475,203.262 61.750 C 203.322 62.025,203.586 62.524,203.847 62.859 C 204.461 63.644,204.753 64.344,204.981 65.580 C 205.088 66.158,205.361 66.858,205.632 67.247 C 206.737 68.833,206.901 71.133,205.967 71.919 L 205.433 72.368 202.342 72.288 C 199.410 72.212,198.000 71.999,198.000 71.632 C 198.000 71.552,197.861 71.337,197.692 71.155 C 197.522 70.973,197.284 70.508,197.162 70.121 C 196.864 69.174,196.359 68.167,196.183 68.167 C 196.105 68.167,195.966 67.960,195.875 67.708 C 195.570 66.867,195.167 65.391,195.167 65.118 C 195.167 63.757,194.717 63.669,187.745 63.668 C 181.203 63.667,181.167 63.673,181.167 64.752 C 181.167 65.415,180.941 65.986,180.299 66.947 C 180.043 67.330,179.833 67.756,179.833 67.894 C 179.833 69.223,178.636 71.399,177.587 71.974 C 176.614 72.507,171.311 72.473,170.487 71.928 C 169.474 71.258,169.666 68.428,170.821 66.990 C 171.166 66.562,171.440 65.911,171.673 64.971 C 172.213 62.797,172.376 62.324,172.656 62.113 C 173.045 61.820,173.450 60.840,173.676 59.645 C 173.818 58.900,174.047 58.362,174.444 57.841 C 174.756 57.432,175.049 56.907,175.096 56.674 C 175.143 56.441,175.253 55.979,175.341 55.647 C 175.428 55.316,175.500 54.887,175.500 54.693 C 175.500 54.288,176.172 52.833,176.359 52.833 C 176.545 52.833,176.926 51.876,177.156 50.833 C 177.444 49.525,177.665 48.996,178.198 48.337 C 178.456 48.018,178.667 47.649,178.667 47.516 C 178.667 47.383,178.737 47.043,178.823 46.762 C 178.909 46.480,179.070 45.826,179.180 45.307 C 179.299 44.744,179.547 44.183,179.795 43.915 C 180.263 43.411,180.833 42.041,180.833 41.423 C 180.833 40.844,181.402 39.452,181.835 38.970 C 181.974 38.815,182.192 38.328,182.320 37.886 C 183.118 35.127,183.454 34.508,184.165 34.488 C 184.395 34.482,184.733 34.412,184.917 34.333 C 185.660 34.014,191.039 34.141,191.614 34.492 M217.210 34.744 C 219.038 35.508,218.998 35.149,218.999 50.787 L 219.000 64.325 219.492 64.579 C 219.910 64.795,221.085 64.834,227.367 64.841 C 237.437 64.851,237.230 64.784,237.138 67.989 C 237.073 70.263,236.677 71.321,235.667 71.910 C 234.952 72.326,211.876 72.455,210.963 72.048 C 209.869 71.559,209.917 72.412,209.917 53.417 C 209.917 33.887,209.826 35.154,211.250 34.726 C 212.247 34.426,216.480 34.439,217.210 34.744 M248.171 34.835 C 248.878 35.196,249.295 35.721,249.622 36.659 C 249.779 37.109,249.829 40.474,249.831 50.771 C 249.833 63.139,249.857 64.312,250.109 64.521 C 250.330 64.705,251.928 64.768,258.234 64.841 C 268.379 64.960,267.833 64.785,267.833 67.908 C 267.833 70.758,267.342 71.715,265.648 72.172 C 264.600 72.454,242.209 72.322,241.697 72.030 C 240.631 71.422,240.666 72.058,240.669 53.445 C 240.672 36.348,240.679 36.113,241.253 35.140 C 241.671 34.433,246.928 34.201,248.171 34.835 M187.125 48.026 C 186.992 48.516,186.792 49.329,186.679 49.833 C 186.398 51.097,186.158 51.682,185.730 52.149 C 185.528 52.368,185.277 52.893,185.172 53.315 C 185.067 53.738,184.914 54.339,184.832 54.651 C 184.710 55.113,184.745 55.308,185.019 55.693 L 185.356 56.167 187.741 56.167 C 191.591 56.167,192.139 55.769,190.845 53.917 C 190.351 53.209,190.142 52.642,189.834 51.167 C 189.548 49.801,189.320 49.311,188.671 48.667 C 188.348 48.346,187.922 47.870,187.725 47.609 L 187.366 47.135 187.125 48.026 M189.506 52.466 C 189.710 54.174,190.029 54.872,190.713 55.109 C 191.268 55.301,189.832 55.468,187.468 55.485 C 185.270 55.502,185.257 55.495,185.417 54.334 C 185.512 53.637,185.612 53.467,186.088 53.186 C 186.727 52.809,187.165 51.658,187.169 50.345 C 187.174 48.810,187.245 48.782,188.335 49.875 L 189.314 50.857 189.506 52.466 " stroke="none" fill="#5cac64" fill-rule="evenodd"></path></g></svg>